# xmcd
#
# Track frame offsets:
#	150
#	10060
#	23613
#	33621
#	44873
#	55871
#	65475
#	74596
#	85545
#	94307
#	102767
#	112291
#	123330
#	138241
#	152207
#	163387
#	176513
#	186566
#	198072
#	207571
#	216623
#	227286
#	239565
#	247697
#	258573
#	270087
#
# Disc length: 3801 seconds
#
# Revision: 0
# Processed by: cddbd v1.5.2PL0 Copyright (c) Steve Scherf et al.
# Submitted via: audiograbber 1.83.01
#
DISCID=7c0ed71a
DTITLE=Various Artist - Wrinkle City Relics Volume 32
DYEAR=1900
DGENRE=
TTITLE0=George And Gene - Teenage Love
TTITLE1=Reminiscents - Oh Let Me Dream
TTITLE2=Turbans - Sister Sookie's Back (Never Released)
TTITLE3=Chantuers - New Rockin Baby
TTITLE4=Nobles - Do You Love Me
TTITLE5=Shells - Dear One
TTITLE6=Miles And Andrew - It's Heaven
TTITLE7=Johnny And Jacks - Baby I Love You So
TTITLE8=Apollo Bros - My Beloved One
TTITLE9=Capris - This Is Goodbye
TTITLE10=Carol Hunt And Group - Oh Tommy
TTITLE11=Nippy And Nip Tones - Angie
TTITLE12=Eloise Trio - Little Darling
TTITLE13=Star Sapphires - Cherry Pie
TTITLE14=Eddie LeBron and Group - My Vow To You
TTITLE15=Little Duck And Drakes - Every Beat Of My Heart
TTITLE16=Billy Kope And Quadrells - Lula
TTITLE17=Roy Nixon and Downbeats - Hard Rockin Daddy
TTITLE18=Royal Monarchs - My Babe
TTITLE19=Velvetones - Stars Of Wonder
TTITLE20=Sugar And Sweet - Dream Love
TTITLE21=Comets - Dad Is Home
TTITLE22=Zeroes - Flossie Mae
TTITLE23=Pretty Boy LaMar - I'm In Love
TTITLE24=Tony And Daydreams - I'll Never Tell
TTITLE25=Jackie Edwards - Our Anniversary (Pt 1)
EXTD=
EXTT0=
EXTT1=
EXTT2=
EXTT3=
EXTT4=
EXTT5=
EXTT6=
EXTT7=
EXTT8=
EXTT9=
EXTT10=
EXTT11=
EXTT12=
EXTT13=
EXTT14=
EXTT15=
EXTT16=
EXTT17=
EXTT18=
EXTT19=
EXTT20=
EXTT21=
EXTT22=
EXTT23=
EXTT24=
EXTT25=
PLAYORDER=
